M48
; DRILL file {KiCad 9.0.1} date 2025-08-24T18:00:12+0200
; FORMAT={-:-/ absolute / inch / decimal}
; #@! TF.CreationDate,2025-08-24T18:00:12+02:00
; #@! TF.GenerationSoftware,Kicad,Pcbnew,9.0.1
; #@! TF.FileFunction,Plated,1,2,PTH
FMAT,2
INCH
; #@! TA.AperFunction,Plated,PTH,ViaDrill
T1C0.0157
; #@! TA.AperFunction,Plated,PTH,ComponentDrill
T2C0.0157
; #@! TA.AperFunction,Plated,PTH,ComponentDrill
T3C0.0197
; #@! TA.AperFunction,Plated,PTH,ComponentDrill
T4C0.0315
; #@! TA.AperFunction,Plated,PTH,ComponentDrill
T5C0.0354
; #@! TA.AperFunction,Plated,PTH,ComponentDrill
T6C0.0374
; #@! TA.AperFunction,Plated,PTH,ComponentDrill
T7C0.0394
; #@! TA.AperFunction,Plated,PTH,ComponentDrill
T8C0.0433
; #@! TA.AperFunction,Plated,PTH,ComponentDrill
T9C0.0472
; #@! TA.AperFunction,Plated,PTH,ComponentDrill
T10C0.0551
; #@! TA.AperFunction,Plated,PTH,ComponentDrill
T11C0.0984
%
G90
G05
T1
X2.4173Y-3.9606
X3.7008Y-3.6929
X4.3228Y-3.2441
T3
X4.752Y-2.4576
X4.7736Y-2.4054
X4.7736Y-2.5098
X4.8258Y-2.3838
X4.8258Y-2.5315
X4.878Y-2.4054
X4.878Y-2.5098
X4.8996Y-2.4576
T4
X0.8858Y-3.0315
X0.8858Y-3.4252
X1.1516Y-3.0315
X1.1516Y-3.4252
X1.1516Y-3.5902
X1.1516Y-3.787
X1.3878Y-3.0315
X1.3878Y-3.3315
X1.3878Y-3.4917
X1.3878Y-3.7917
X1.6043Y-3.0315
X1.6043Y-3.3315
X1.6043Y-3.4917
X1.6043Y-3.7917
X1.6043Y-3.9689
X1.6043Y-4.3626
X1.8209Y-3.0315
X1.8209Y-3.3315
X1.8209Y-3.4917
X1.8209Y-3.7917
X1.8209Y-4.0181
X1.8209Y-4.3181
X2.0079Y-3.0831
X2.0079Y-3.2799
X2.0079Y-3.4917
X2.0079Y-3.7917
X2.0079Y-4.0181
X2.0079Y-4.3181
X2.2992Y-4.0866
X2.2992Y-4.4803
X2.3228Y-3.7992
X2.3524Y-2.7264
X2.3524Y-2.9823
X2.3894Y-3.2555
X2.3894Y-3.3555
X2.3894Y-3.4555
X2.3894Y-3.5555
X2.4311Y-2.7264
X2.4311Y-2.9823
X2.6181Y-2.724
X2.6181Y-3.024
X2.6894Y-3.2555
X2.6894Y-3.3555
X2.6894Y-3.4555
X2.6894Y-3.5555
X2.7051Y-4.2992
X2.7067Y-4.1654
X2.7165Y-3.7992
X2.7994Y-2.724
X2.7994Y-3.024
X2.8051Y-4.2992
X2.8067Y-4.1654
X2.9313Y-3.3366
X2.9829Y-3.1398
X3.0431Y-3.563
X3.1218Y-3.563
X3.1797Y-3.1398
X3.2313Y-3.3366
X3.285Y-2.9921
X3.3409Y-4.1654
X3.3425Y-4.2992
X3.3563Y-3.1594
X3.3661Y-3.3244
X3.3661Y-3.6244
X3.4409Y-4.1654
X3.4425Y-4.2992
X3.5358Y-3.3244
X3.5358Y-3.6244
X3.5531Y-3.1594
X3.585Y-2.9921
X3.6535Y-3.976
X3.6535Y-4.276
X3.7106Y-3.4252
X3.7106Y-3.622
X3.7256Y-3.1594
X3.728Y-2.9921
X3.8287Y-3.9075
X3.8976Y-3.3244
X3.8976Y-3.4244
X3.8976Y-3.5244
X3.8976Y-3.6244
X3.9469Y-4.3898
X4.0256Y-3.1594
X4.028Y-2.9921
X4.0429Y-4.1634
X4.1709Y-2.9921
X4.176Y-3.1594
X4.1976Y-3.3244
X4.1976Y-3.4244
X4.1976Y-3.5244
X4.1976Y-3.6244
X4.2224Y-3.9075
X4.3406Y-4.3898
X4.3429Y-4.1634
X4.3457Y-3.8287
X4.3996Y-3.9862
X4.4709Y-2.9921
X4.476Y-3.1594
X4.4858Y-4.1634
X4.4882Y-3.2972
X4.4882Y-3.6909
X4.4882Y-4.3898
X4.5965Y-3.9862
X4.626Y-3.0709
X4.6457Y-3.8287
X4.7244Y-3.3539
X4.7244Y-3.6539
X4.7858Y-4.1634
X4.7862Y-3.8287
X4.8425Y-3.9862
X4.8819Y-4.3898
X4.9803Y-3.2874
X4.9803Y-3.6811
X5.0197Y-3.0709
X5.0394Y-3.9862
X5.0862Y-3.8287
X5.187Y-3.061
X5.2854Y-3.061
X5.4849Y-3.0413
X5.5834Y-3.0413
X5.7654Y-3.4547
X5.7677Y-3.0217
X6.0654Y-3.4547
X6.1614Y-3.0217
X6.2476Y-3.4547
X6.2697Y-3.0217
X6.2953Y-4.378
X6.4921Y-4.378
X6.5476Y-3.4547
X6.6634Y-3.0217
X6.689Y-4.378
X6.8504Y-3.0413
X6.8799Y-3.6301
X6.8799Y-3.7089
X6.8858Y-4.378
X6.9488Y-3.0413
X7.0484Y-4.378
X7.0866Y-3.9567
X7.126Y-3.413
X7.126Y-3.713
X7.2614Y-3.2185
X7.2933Y-2.9232
X7.2933Y-3.0217
X7.3006Y-2.3819
X7.3006Y-2.7756
X7.3228Y-3.4154
X7.3228Y-3.7154
X7.3484Y-4.378
X7.4803Y-3.9567
X7.5209Y-4.378
X7.5614Y-3.2185
X7.5642Y-3.0315
X7.8126Y-3.9665
X7.8209Y-4.378
X7.8618Y-3.2185
X7.8642Y-3.0315
X7.9661Y-4.378
X8.1126Y-3.9665
X8.1299Y-2.9259
X8.1299Y-3.0243
X8.1398Y-2.3819
X8.1398Y-2.7756
X8.1398Y-3.3661
X8.1398Y-3.7598
X8.1618Y-3.2185
X8.163Y-4.378
X8.4941Y-2.4189
X8.4941Y-2.7189
X8.622Y-2.4189
X8.622Y-2.7189
X8.6272Y-3.9173
X9.0209Y-3.9173
X9.4685Y-4.0134
X9.4685Y-4.3134
X9.6319Y-4.0134
X9.6319Y-4.3134
X9.8917Y-3.8976
X10.1917Y-3.8976
X10.5315Y-3.8976
X10.6102Y-3.8976
X11.0138Y-4.2988
X11.0138Y-4.5988
T5
X1.7215Y-4.7736
X1.8215Y-4.7736
X2.0266Y-4.7736
X2.1266Y-4.7736
X3.0311Y-2.8445
X3.0315Y-2.5591
X3.1311Y-2.8445
X3.1315Y-2.5591
X10.9636Y-4.7628
X11.0636Y-4.7628
T6
X1.2303Y-2.5591
X1.3287Y-2.5591
X1.4272Y-2.5591
X1.7815Y-2.5492
X1.8799Y-2.5492
X1.9783Y-2.5492
X3.4055Y-2.5591
X3.5039Y-2.5591
X3.6024Y-2.5591
X3.9764Y-2.5591
X4.0748Y-2.5591
X4.1732Y-2.5591
X6.1122Y-2.5492
X6.2106Y-2.5492
X6.3091Y-2.5492
T7
X2.9811Y-3.9417
X2.9811Y-4.1417
X2.9811Y-4.2417
X2.9811Y-4.3417
X3.1811Y-3.9417
X3.1811Y-4.1417
X3.1811Y-4.2417
X3.1811Y-4.3417
X7.7142Y-3.4599
X7.7142Y-3.6568
X8.9075Y-2.5492
X9.0059Y-2.5492
T8
X2.852Y-3.7874
X3.252Y-3.7874
X4.7258Y-2.7261
X4.8258Y-2.7261
X4.9258Y-2.7261
X7.5945Y-2.6535
X7.6614Y-2.5079
X7.7283Y-2.6535
X7.7953Y-2.5079
X7.8622Y-2.6535
T9
X2.1949Y-3.1201
X2.1949Y-3.3465
X2.1949Y-3.5728
X2.6083Y-4.8917
X2.8051Y-4.8917
X3.002Y-4.8917
X3.5925Y-3.7795
X3.5925Y-4.8917
X3.7894Y-4.8917
X3.9862Y-4.8917
X4.5768Y-4.8917
X4.7736Y-4.8917
X4.9705Y-4.8917
X5.2067Y-3.3071
X5.261Y-3.8287
X5.5191Y-2.6181
X5.5315Y-3.4547
X5.5591Y-4.1417
X5.561Y-4.8917
X5.6988Y-3.2382
X5.7159Y-2.6181
X5.7559Y-4.1417
X5.7579Y-4.8917
X5.9528Y-4.1417
X5.9547Y-4.8917
X6.2205Y-3.248
X6.5453Y-4.8917
X6.7126Y-3.248
X6.7224Y-2.6083
X6.7421Y-4.8917
X6.8799Y-3.4449
X6.9193Y-2.6083
X6.939Y-4.8917
X7.5295Y-4.8917
X7.7264Y-4.8917
X7.9232Y-4.8917
X8.376Y-3.9075
X8.5138Y-4.8917
X8.524Y-2.9429
X8.524Y-3.1759
X8.524Y-3.4088
X8.524Y-3.6417
X8.7106Y-4.8917
X8.9075Y-4.8917
X9.124Y-2.9429
X9.124Y-3.1759
X9.124Y-3.4088
X9.124Y-3.6417
X9.2079Y-3.9173
X9.3996Y-2.8874
X9.3996Y-3.6874
X9.4547Y-4.4783
X9.6516Y-4.4764
X10.3504Y-3.8976
T10
X0.7041Y-4.3612
X0.7041Y-4.6112
X0.7041Y-4.8612
X1.3431Y-4.3612
X1.3431Y-4.6112
X1.3431Y-4.8612
X9.9463Y-4.3819
X9.9463Y-4.6319
X9.9463Y-4.8819
X10.5852Y-4.3819
X10.5852Y-4.6319
X10.5852Y-4.8819
T11
X4.8258Y-2.4576
T2
G00X9.3602Y-4.6831
M15
G01X9.3602Y-4.7224
M16
G05
G00X9.5374Y-4.8996
M15
G01X9.5768Y-4.8996
M16
G05
G00X9.7539Y-4.7224
M15
G01X9.7539Y-4.6831
M16
G05
M30
