%TF.GenerationSoftware,KiCad,Pcbnew,9.0.1*%
%TF.CreationDate,2025-08-24T18:00:14+02:00*%
%TF.ProjectId,my_mg10,6d795f6d-6731-4302-9e6b-696361645f70,rev?*%
%TF.SameCoordinates,Original*%
%TF.FileFunction,Soldermask,Bot*%
%TF.FilePolarity,Negative*%
%FSLAX46Y46*%
G04 Gerber Fmt 4.6, Leading zero omitted, Abs format (unit mm)*
G04 Created by KiCad (PCBNEW 9.0.1) date 2025-08-24 18:00:14*
%MOMM*%
%LPD*%
G01*
G04 APERTURE LIST*
G04 Aperture macros list*
%AMRoundRect*
0 Rectangle with rounded corners*
0 $1 Rounding radius*
0 $2 $3 $4 $5 $6 $7 $8 $9 X,Y pos of 4 corners*
0 Add a 4 corners polygon primitive as box body*
4,1,4,$2,$3,$4,$5,$6,$7,$8,$9,$2,$3,0*
0 Add four circle primitives for the rounded corners*
1,1,$1+$1,$2,$3*
1,1,$1+$1,$4,$5*
1,1,$1+$1,$6,$7*
1,1,$1+$1,$8,$9*
0 Add four rect primitives between the rounded corners*
20,1,$1+$1,$2,$3,$4,$5,0*
20,1,$1+$1,$4,$5,$6,$7,0*
20,1,$1+$1,$6,$7,$8,$9,0*
20,1,$1+$1,$8,$9,$2,$3,0*%
G04 Aperture macros list end*
%ADD10C,1.600000*%
%ADD11C,2.500000*%
%ADD12R,1.800000X1.800000*%
%ADD13C,1.800000*%
%ADD14O,1.600000X1.600000*%
%ADD15C,3.000000*%
%ADD16R,1.600000X1.600000*%
%ADD17C,2.400000*%
%ADD18O,2.400000X2.400000*%
%ADD19R,3.000000X3.000000*%
%ADD20R,2.400000X2.400000*%
%ADD21R,2.200000X2.200000*%
%ADD22O,2.200000X2.200000*%
%ADD23RoundRect,0.250000X-0.600000X-0.725000X0.600000X-0.725000X0.600000X0.725000X-0.600000X0.725000X0*%
%ADD24O,1.700000X1.950000*%
%ADD25R,2.000000X2.000000*%
%ADD26C,2.000000*%
%ADD27C,0.800000*%
%ADD28C,5.000000*%
%ADD29RoundRect,0.250000X-0.550000X-0.550000X0.550000X-0.550000X0.550000X0.550000X-0.550000X0.550000X0*%
%ADD30C,1.200000*%
%ADD31O,1.200000X2.200000*%
%ADD32O,2.200000X1.200000*%
%ADD33RoundRect,0.250000X-0.600000X-0.750000X0.600000X-0.750000X0.600000X0.750000X-0.600000X0.750000X0*%
%ADD34O,1.700000X2.000000*%
%ADD35C,1.400000*%
%ADD36R,1.905000X2.000000*%
%ADD37O,1.905000X2.000000*%
G04 APERTURE END LIST*
D10*
%TO.C,C37*%
X114000000Y-93750000D03*
X114000000Y-83750000D03*
%TD*%
D11*
%TO.C,TP19*%
X133630000Y-97250000D03*
%TD*%
%TO.C,TP20*%
X132250000Y-84000000D03*
%TD*%
D10*
%TO.C,C17*%
X80765000Y-79750000D03*
X75765000Y-79750000D03*
%TD*%
D12*
%TO.C,D6*%
X76990000Y-72250000D03*
D13*
X79530000Y-72250000D03*
%TD*%
D10*
%TO.C,R36*%
X251250000Y-99000000D03*
D14*
X258870000Y-99000000D03*
%TD*%
D11*
%TO.C,TP2*%
X158000000Y-82500000D03*
%TD*%
%TO.C,TP16*%
X233880000Y-99500000D03*
%TD*%
D10*
%TO.C,R41*%
X51000000Y-109680000D03*
D14*
X51000000Y-102060000D03*
%TD*%
D10*
%TO.C,R25*%
X199690000Y-81750000D03*
D14*
X207310000Y-81750000D03*
%TD*%
D10*
%TO.C,R40*%
X118000000Y-97250000D03*
D14*
X110380000Y-97250000D03*
%TD*%
D10*
%TO.C,C23*%
X185434784Y-60500000D03*
X185434784Y-70500000D03*
%TD*%
D15*
%TO.C,J1*%
X34115000Y-117125000D03*
X17885000Y-117125000D03*
X34115000Y-123475000D03*
X17885000Y-123475000D03*
X34115000Y-110775000D03*
X17885000Y-110775000D03*
%TD*%
D10*
%TO.C,C6*%
X29250000Y-91190000D03*
X29250000Y-96190000D03*
%TD*%
D16*
%TO.C,C27*%
X185250000Y-76750000D03*
D10*
X185250000Y-74250000D03*
%TD*%
%TO.C,R24*%
X186650000Y-111200000D03*
D14*
X179030000Y-111200000D03*
%TD*%
D17*
%TO.C,R32*%
X216510000Y-86583333D03*
D18*
X231750000Y-86583333D03*
%TD*%
D11*
%TO.C,TP3*%
X144750000Y-82250000D03*
%TD*%
D10*
%TO.C,C14*%
X97250000Y-99250000D03*
X107250000Y-99250000D03*
%TD*%
%TO.C,C35*%
X90250000Y-80250000D03*
X85250000Y-80250000D03*
%TD*%
D16*
%TO.C,C26*%
X206500000Y-74317621D03*
D10*
X206500000Y-76817621D03*
%TD*%
D12*
%TO.C,D3*%
X51475000Y-121250000D03*
D13*
X54015000Y-121250000D03*
%TD*%
D12*
%TO.C,D7*%
X79540000Y-65000000D03*
D13*
X77000000Y-65000000D03*
%TD*%
D19*
%TO.C,RV6*%
X166250000Y-124250000D03*
D15*
X171250000Y-124250000D03*
X176250000Y-124250000D03*
%TD*%
D10*
%TO.C,R39*%
X129190000Y-97250000D03*
D14*
X121570000Y-97250000D03*
%TD*%
D16*
%TO.C,C16*%
X131750000Y-77750000D03*
D10*
X134250000Y-77750000D03*
%TD*%
D19*
%TO.C,RV1*%
X66250000Y-124250000D03*
D15*
X71250000Y-124250000D03*
X76250000Y-124250000D03*
%TD*%
D10*
%TO.C,C32*%
X111750000Y-101250000D03*
X116750000Y-101250000D03*
%TD*%
D11*
%TO.C,TP1*%
X170500000Y-82500000D03*
%TD*%
D20*
%TO.C,C10*%
X140184784Y-66500000D03*
D17*
X145184784Y-66500000D03*
%TD*%
D16*
%TO.C,C13*%
X59750000Y-75750000D03*
D10*
X61750000Y-75750000D03*
%TD*%
%TO.C,R8*%
X66500000Y-76810000D03*
D14*
X66500000Y-69190000D03*
%TD*%
D10*
%TO.C,R26*%
X102690000Y-105750000D03*
D14*
X110310000Y-105750000D03*
%TD*%
D17*
%TO.C,R35*%
X216510000Y-92500000D03*
D18*
X231750000Y-92500000D03*
%TD*%
D10*
%TO.C,R10*%
X83440000Y-76000000D03*
D14*
X91060000Y-76000000D03*
%TD*%
D16*
%TO.C,C12*%
X59750000Y-69250000D03*
D10*
X61750000Y-69250000D03*
%TD*%
D21*
%TO.C,D1*%
X72440000Y-96200000D03*
D22*
X82600000Y-96200000D03*
%TD*%
D10*
%TO.C,R4*%
X40750000Y-77000000D03*
D14*
X40750000Y-84620000D03*
%TD*%
D23*
%TO.C,SW2*%
X45250000Y-64750000D03*
D24*
X47750000Y-64750000D03*
X50250000Y-64750000D03*
%TD*%
D11*
%TO.C,TP15*%
X91250000Y-96000000D03*
%TD*%
D10*
%TO.C,R12*%
X240500000Y-109560000D03*
D14*
X240500000Y-101940000D03*
%TD*%
D25*
%TO.C,K1*%
X75720000Y-100120000D03*
D26*
X75720000Y-105200000D03*
X75720000Y-107740000D03*
X75720000Y-110280000D03*
X80800000Y-110280000D03*
X80800000Y-107740000D03*
X80800000Y-105200000D03*
X80800000Y-100120000D03*
%TD*%
D10*
%TO.C,C18*%
X58400000Y-103800000D03*
X58400000Y-113800000D03*
%TD*%
D17*
%TO.C,R29*%
X216510000Y-74750000D03*
D18*
X231750000Y-74750000D03*
%TD*%
D10*
%TO.C,R27*%
X113940000Y-105750000D03*
D14*
X121560000Y-105750000D03*
%TD*%
D10*
%TO.C,R23*%
X191030000Y-111200000D03*
D14*
X198650000Y-111200000D03*
%TD*%
D10*
%TO.C,C2*%
X169250000Y-76750000D03*
X159250000Y-76750000D03*
%TD*%
%TO.C,C31*%
X100250000Y-111500000D03*
X110250000Y-111500000D03*
%TD*%
D16*
%TO.C,D10*%
X215750000Y-69060000D03*
D14*
X215750000Y-61440000D03*
%TD*%
D10*
%TO.C,R13*%
X82075000Y-84750000D03*
D14*
X74455000Y-84750000D03*
%TD*%
D10*
%TO.C,R1*%
X40750000Y-96310000D03*
D14*
X40750000Y-88690000D03*
%TD*%
D27*
%TO.C,H1*%
X120700825Y-62424175D03*
X121250000Y-61098350D03*
X121250000Y-63750000D03*
X122575825Y-60549175D03*
D28*
X122575825Y-62424175D03*
D27*
X122575825Y-64299175D03*
X123901650Y-61098350D03*
X123901650Y-63750000D03*
X124450825Y-62424175D03*
%TD*%
D11*
%TO.C,TP14*%
X212750000Y-99250000D03*
%TD*%
D10*
%TO.C,R7*%
X94690000Y-76000000D03*
D14*
X102310000Y-76000000D03*
%TD*%
D10*
%TO.C,R33*%
X89810000Y-84440000D03*
D14*
X89810000Y-92060000D03*
%TD*%
D15*
%TO.C,J6*%
X268865000Y-117650000D03*
X252635000Y-117650000D03*
X268865000Y-124000000D03*
X252635000Y-124000000D03*
X268865000Y-111300000D03*
X252635000Y-111300000D03*
%TD*%
D11*
%TO.C,TP10*%
X140500000Y-87750000D03*
%TD*%
D10*
%TO.C,C5*%
X22500000Y-87000000D03*
X22500000Y-77000000D03*
%TD*%
D11*
%TO.C,TP5*%
X55750000Y-85000000D03*
%TD*%
D29*
%TO.C,U2*%
X99000000Y-84440000D03*
D10*
X99000000Y-86980000D03*
X99000000Y-89520000D03*
X99000000Y-92060000D03*
X106620000Y-92060000D03*
X106620000Y-89520000D03*
X106620000Y-86980000D03*
X106620000Y-84440000D03*
%TD*%
D11*
%TO.C,TP8*%
X245150000Y-113700000D03*
%TD*%
%TO.C,TP6*%
X55750000Y-79250000D03*
%TD*%
D16*
%TO.C,D5*%
X46250000Y-88690000D03*
D14*
X46250000Y-96310000D03*
%TD*%
D16*
%TO.C,C21*%
X174750000Y-94205112D03*
D10*
X174750000Y-92205112D03*
%TD*%
%TO.C,R34*%
X120000000Y-85190000D03*
D14*
X120000000Y-92810000D03*
%TD*%
D16*
%TO.C,C7*%
X174000000Y-77250000D03*
D10*
X176500000Y-77250000D03*
%TD*%
%TO.C,C34*%
X124000000Y-111500000D03*
X114000000Y-111500000D03*
%TD*%
D23*
%TO.C,J4*%
X101000000Y-65000000D03*
D24*
X103500000Y-65000000D03*
X106000000Y-65000000D03*
%TD*%
D11*
%TO.C,TP4*%
X55750000Y-90750000D03*
%TD*%
D10*
%TO.C,C39*%
X126500000Y-93500000D03*
X126500000Y-83500000D03*
%TD*%
%TO.C,C41*%
X117500000Y-78000000D03*
X127500000Y-78000000D03*
%TD*%
%TO.C,R21*%
X186000000Y-86750000D03*
D14*
X186000000Y-94370000D03*
%TD*%
D10*
%TO.C,R16*%
X92800000Y-100990000D03*
D14*
X92800000Y-108610000D03*
%TD*%
D25*
%TO.C,C24*%
X195940000Y-87882323D03*
D26*
X195940000Y-92882323D03*
%TD*%
D10*
%TO.C,C33*%
X123000000Y-101250000D03*
X128000000Y-101250000D03*
%TD*%
%TO.C,R38*%
X94630000Y-80250000D03*
D14*
X102250000Y-80250000D03*
%TD*%
D16*
%TO.C,D9*%
X219000000Y-61440000D03*
D14*
X219000000Y-69060000D03*
%TD*%
D30*
%TO.C,J3*%
X237750000Y-124450000D03*
X237750000Y-126950000D03*
X242750000Y-119450000D03*
X247750000Y-124450000D03*
X247750000Y-126950000D03*
D31*
X237750000Y-119450000D03*
D32*
X242750000Y-124450000D03*
D31*
X247750000Y-119450000D03*
%TD*%
D17*
%TO.C,R31*%
X216510000Y-80666667D03*
D18*
X231750000Y-80666667D03*
%TD*%
D19*
%TO.C,RV3*%
X91250000Y-124250000D03*
D15*
X96250000Y-124250000D03*
X101250000Y-124250000D03*
%TD*%
D10*
%TO.C,C29*%
X202340000Y-111200000D03*
X207340000Y-111200000D03*
%TD*%
%TO.C,R6*%
X71104888Y-69190000D03*
D14*
X71104888Y-76810000D03*
%TD*%
D10*
%TO.C,R19*%
X158690000Y-87750000D03*
D14*
X166310000Y-87750000D03*
%TD*%
D12*
%TO.C,D8*%
X278475000Y-120975000D03*
D13*
X281015000Y-120975000D03*
%TD*%
D10*
%TO.C,R17*%
X198440000Y-100750000D03*
D14*
X206060000Y-100750000D03*
%TD*%
D16*
%TO.C,C19*%
X77294888Y-90500000D03*
D10*
X79294888Y-90500000D03*
%TD*%
D33*
%TO.C,LS1*%
X226250000Y-64750000D03*
D34*
X228750000Y-64750000D03*
%TD*%
D10*
%TO.C,C4*%
X29250000Y-87000000D03*
X29250000Y-77000000D03*
%TD*%
%TO.C,C25*%
X169900000Y-111200000D03*
X174900000Y-111200000D03*
%TD*%
D35*
%TO.C,JP6*%
X87400000Y-105800000D03*
X84860000Y-105800000D03*
%TD*%
%TO.C,JP5*%
X84900000Y-109200000D03*
X87440000Y-109200000D03*
%TD*%
%TO.C,JP7*%
X71250000Y-109200000D03*
X68710000Y-109200000D03*
%TD*%
D16*
%TO.C,D4*%
X51000000Y-96310000D03*
D14*
X51000000Y-88690000D03*
%TD*%
D29*
%TO.C,U1*%
X60690000Y-82690000D03*
D10*
X60690000Y-85230000D03*
X60690000Y-87770000D03*
X60690000Y-90310000D03*
X68310000Y-90310000D03*
X68310000Y-87770000D03*
X68310000Y-85230000D03*
X68310000Y-82690000D03*
%TD*%
%TO.C,R9*%
X113560000Y-76000000D03*
D14*
X105940000Y-76000000D03*
%TD*%
D16*
%TO.C,C8*%
X139317620Y-77250000D03*
D10*
X141817620Y-77250000D03*
%TD*%
%TO.C,R42*%
X46250000Y-109680000D03*
D14*
X46250000Y-102060000D03*
%TD*%
D10*
%TO.C,C22*%
X206750000Y-70500000D03*
X206750000Y-60500000D03*
%TD*%
D11*
%TO.C,TP17*%
X262900000Y-99000000D03*
%TD*%
D10*
%TO.C,C11*%
X51000000Y-83310000D03*
X51000000Y-78310000D03*
%TD*%
D19*
%TO.C,RV2*%
X116250000Y-124250000D03*
D15*
X121250000Y-124250000D03*
X126250000Y-124250000D03*
%TD*%
D20*
%TO.C,C9*%
X170750000Y-66250000D03*
D17*
X175750000Y-66250000D03*
%TD*%
D16*
%TO.C,C40*%
X267500000Y-99000000D03*
D10*
X269500000Y-99000000D03*
%TD*%
D12*
%TO.C,U4*%
X192900000Y-67400000D03*
D13*
X194600000Y-63700000D03*
X196300000Y-67400000D03*
X198000000Y-63700000D03*
X199700000Y-67400000D03*
%TD*%
D10*
%TO.C,C28*%
X206750000Y-95500000D03*
X206750000Y-85500000D03*
%TD*%
%TO.C,R11*%
X244650000Y-109560000D03*
D14*
X244650000Y-101940000D03*
%TD*%
D35*
%TO.C,JP8*%
X68750000Y-105800000D03*
X71290000Y-105800000D03*
%TD*%
D23*
%TO.C,J2*%
X155250000Y-64750000D03*
D24*
X157750000Y-64750000D03*
X160250000Y-64750000D03*
%TD*%
D10*
%TO.C,C36*%
X219130000Y-99500000D03*
X229130000Y-99500000D03*
%TD*%
D36*
%TO.C,U3*%
X120035825Y-69244175D03*
D37*
X122575825Y-69244175D03*
X125115825Y-69244175D03*
%TD*%
D19*
%TO.C,RV4*%
X191250000Y-124250000D03*
D15*
X196250000Y-124250000D03*
X201250000Y-124250000D03*
%TD*%
D10*
%TO.C,C38*%
X94250000Y-92000000D03*
X94250000Y-87000000D03*
%TD*%
%TO.C,C15*%
X59000000Y-96500000D03*
X69000000Y-96500000D03*
%TD*%
%TO.C,R3*%
X35250000Y-77000000D03*
D14*
X35250000Y-84620000D03*
%TD*%
D19*
%TO.C,RV8*%
X216250000Y-124250000D03*
D15*
X221250000Y-124250000D03*
X226250000Y-124250000D03*
%TD*%
D10*
%TO.C,R2*%
X35250000Y-88690000D03*
D14*
X35250000Y-96310000D03*
%TD*%
D10*
%TO.C,R15*%
X279750000Y-109190000D03*
D14*
X279750000Y-116810000D03*
%TD*%
D10*
%TO.C,R18*%
X181000000Y-94310000D03*
D14*
X181000000Y-86690000D03*
%TD*%
D19*
%TO.C,RV5*%
X141250000Y-124250000D03*
D15*
X146250000Y-124250000D03*
X151250000Y-124250000D03*
%TD*%
D11*
%TO.C,TP9*%
X240150000Y-113750000D03*
%TD*%
D23*
%TO.C,SW1*%
X31250000Y-65000000D03*
D24*
X33750000Y-65000000D03*
X36250000Y-65000000D03*
%TD*%
D10*
%TO.C,R20*%
X184440000Y-81750000D03*
D14*
X192060000Y-81750000D03*
%TD*%
D11*
%TO.C,TP12*%
X174750000Y-87500000D03*
%TD*%
D12*
%TO.C,D2*%
X43725000Y-121250000D03*
D13*
X46265000Y-121250000D03*
%TD*%
D17*
%TO.C,R37*%
X238750000Y-73340000D03*
D18*
X238750000Y-93660000D03*
%TD*%
D10*
%TO.C,C3*%
X156500000Y-76750000D03*
X146500000Y-76750000D03*
%TD*%
%TO.C,C1*%
X40750000Y-110810000D03*
X40750000Y-100810000D03*
%TD*%
%TO.C,C30*%
X164900000Y-111200000D03*
X159900000Y-111200000D03*
%TD*%
D19*
%TO.C,RV7*%
X141200000Y-105200000D03*
D15*
X146200000Y-105200000D03*
X151200000Y-105200000D03*
%TD*%
D10*
%TO.C,C20*%
X180000000Y-100500000D03*
X190000000Y-100500000D03*
%TD*%
%TO.C,R5*%
X46250000Y-84620000D03*
D14*
X46250000Y-77000000D03*
%TD*%
D10*
%TO.C,R30*%
X106070000Y-80250000D03*
D14*
X113690000Y-80250000D03*
%TD*%
D10*
%TO.C,R28*%
X85500000Y-92060000D03*
D14*
X85500000Y-84440000D03*
%TD*%
D10*
%TO.C,R22*%
X192130000Y-77000000D03*
D14*
X199750000Y-77000000D03*
%TD*%
D23*
%TO.C,J5*%
X86500000Y-65000000D03*
D24*
X89000000Y-65000000D03*
X91500000Y-65000000D03*
%TD*%
D10*
%TO.C,R14*%
X146440000Y-87750000D03*
D14*
X154060000Y-87750000D03*
%TD*%
M02*
